<?xml version="1.0" encoding="utf-8" ?><svg xmlns="http://www.w3.org/2000/svg" xmlns:xlink="http://www.w3.org/1999/xlink" width="1024" height="1024" viewBox="0 0 1024 1024"><path fill="white" d="M0 0L1024 0L1024 1024L0 1024L0 0Z"/><path fill="#272529" d="M523.984 46.6591C545.143 45.2497 588.202 73.4174 607.288 82.5976C613.425 69.6431 624.476 49.0511 641.497 48.5328C652.581 48.1953 659.419 64.3232 665.068 71.7195C670.084 78.2877 676.443 85.7791 683.506 90.4245C691.602 94.8814 701.665 96.5744 710.542 98.8761C767.506 113.639 819.681 144.244 862.733 184.09C874.78 195.24 886.55 200.947 887.087 219.615C894.225 223.612 900.036 228.606 906.337 233.715C922.134 246.544 936.945 260.735 950.712 275.722C956.5 282.024 968.121 291.806 965.77 301.385C964.106 308.166 956.273 315.993 950.482 319.714C949.829 326.992 950.059 332.518 948.663 340.077C945.271 358.44 926.295 372.351 911.289 382.23C910.864 375.861 911.458 374.04 913.03 367.819C908.858 373.045 907.468 378.182 903.971 383.999C893.91 400.733 878.738 414.473 859.79 420.158C857.859 420.738 856.649 420.83 855.091 419.86C857.521 414.837 864.865 407.05 868.478 400.177C873.336 390.936 875.731 380.508 880.557 372.241C876.701 372.728 872.793 373.307 868.937 373.841C859.614 384.583 851.743 396.239 839.147 403.803C834.081 406.845 821.865 413.775 815.935 413.354L815.196 412.496C815.447 409.554 825.704 390.876 827.549 385.914C830.96 376.743 832.726 371.485 834.67 361.525C829.227 363.807 824.321 365.956 818.664 367.69C820.15 361.596 820.111 356.472 819.53 350.304C807.098 346.574 801.274 342.204 792.422 332.984C785.916 336.465 778.437 339.995 771.758 343.343C788.109 363.368 791.919 380.593 788.386 405.756C796.791 413.489 809.566 421.276 815.769 430.455C817.852 433.537 816.228 438.448 815.173 441.758C822.669 435.316 828.65 431.363 836.134 424.145C838.624 439.869 834.914 447.493 829.631 462.154C837.932 457.813 845.763 453.763 852.652 447.212C855.174 444.814 857.612 441.894 860.189 439.327L860.991 439.943C862.106 442.754 861.438 446.277 860.956 449.235C858.114 466.673 850.092 476.23 835.88 486.038C840.98 488.905 845.703 490.811 851.076 492.981C837.244 519.045 815.832 531.758 787.123 535.992C788.766 533.333 792.016 529.285 793.998 526.67C774.468 533.309 763.557 532.924 743.875 535.087C747.098 531.356 750.239 527.808 753.165 523.826C735.485 522.147 722.132 521.31 706.639 511.266C711.375 508.034 714.393 506.123 718.847 502.405C707.464 499.255 703.313 497.743 693.822 490.697C704.749 486.961 722.975 478.617 722.609 463.988C722.381 454.897 712.333 442.343 705.584 436.343C676.7 410.665 635.579 423.282 612.272 450.065C618.266 462.161 623.393 470.348 628.27 483.728C629.608 487.397 635.224 505.322 635.84 506.252C639.362 511.566 646.883 520.14 651.075 526.592C668.876 553.982 678.378 588.464 675.151 621.103C674.602 626.66 673.028 633.496 671.882 639.029C674.329 645.098 678.862 652.953 682.183 658.735C707.748 702.371 732.443 746.997 759.266 789.863C787.987 835.762 816.989 881.845 846.963 926.916L867.836 958.319C872.008 964.549 877.238 972.928 882.232 978.227C874.832 975.336 865.816 969.435 858.939 965.169C845.171 956.629 832.186 946.478 819.277 936.714C787.516 912.663 758 885.623 728.105 859.338C673.749 811.549 619.61 763.535 567.353 713.473C565.416 711.617 558.064 710.241 555.146 709.589C557.983 720.503 557.813 729.354 556.755 740.322C606.796 821.078 682.431 895.767 749.723 962.48C729.209 952.332 710.253 944.099 689.683 933.091C632.988 902.75 580.1 868.185 530.16 827.645C516.454 816.518 505.869 808.121 492.991 795.918C485.553 796.007 478.159 796.41 470.658 796.436C457.387 796.483 444.31 796.321 431.056 797.113C436.816 804.127 444.481 811.784 450.79 818.63C497.713 869.556 551.855 918.344 607.456 959.278C543.354 936.786 479.579 905.925 420.466 872.534C394.31 857.76 368.841 840.384 343.642 823.974C303.375 847.275 250.284 846.727 233.264 796.025C228.885 782.98 228.829 772.123 229.836 758.511C168.775 780.637 109.332 741.357 90.2372 682.191C83.1348 660.185 82.8059 639.825 86.3636 617.158C61.9839 571.949 52.6138 523.095 57.3505 472.004C64.9065 507.78 91.309 560.956 122.378 580.687C144.65 574.819 160.619 574.614 183.048 579.63C156.355 533.019 158.506 478.929 186.074 433.506C184.254 423.299 182.366 413.842 181.124 403.512C175.985 360.742 180.62 323.014 194.306 282.231C194.182 304.201 196.933 328.484 202.808 349.679C208.565 370.451 223.071 396.944 237.112 413.37C238.842 413.674 240.932 413.933 242.701 414.198C283.887 420.377 313.794 442.131 337.942 474.906C338.031 474.189 338.089 473.58 338.147 472.86C340.972 437.754 358.348 404.571 385.31 381.863C392.833 350.346 380.684 290.063 362.574 263.543C380.766 274.747 399.02 299.37 411.22 317.1C422.537 333.548 431.377 354.702 439.342 372.935C454.815 380.784 468.323 388.756 481.052 400.968C504.166 423.146 521.305 452.491 527.37 484.085C529.396 494.64 529.877 504.648 530.2 515.269C545.588 502.077 549.783 498.133 568.465 488.56C577.254 459.212 571.646 429.819 563.685 401.378C561.284 393.957 558.28 385.181 555.083 378.128C576.038 396.365 595.582 421.516 609.634 445.473C616.471 425.61 621.583 417.349 638.851 404.78C627.673 402.352 613.844 403.011 602.509 403.633C620.024 394.153 634.579 389.85 654.799 392.917C684.073 397.611 709.897 415.065 727.432 438.612C740.503 456.164 744.994 474.958 724.594 489.441C728.59 490.064 734.425 490.211 738.586 490.436C740.45 499.065 740.69 502.436 733.657 508.133C742.269 510.183 750.197 510.618 758.981 510.595C761.635 510.588 770.938 510.272 773.008 510.752C774.62 513.201 772.695 512.765 773.954 515.283C784.503 515.109 799.822 510.777 810.329 508.181L811.106 516.664C821.188 511.689 834.116 504.521 841.12 495.833C821.627 491.745 799.946 494.389 784.333 479.63C772.474 468.535 766.656 452.043 758.167 438.522C740.672 410.658 716.515 380.413 728.668 345.424C731.95 335.977 736.601 330.867 743.264 323.683C731.437 329.504 724.669 338.04 716.183 347.784C721.88 335.554 727.192 324.252 738.183 315.719C750.165 306.417 764.529 300.271 778.432 294.449C756.956 294.368 721.39 296.693 703.557 284.969C696.403 280.265 691.248 270.811 690.115 262.397C686.928 238.727 694.352 218.99 707.64 200.2C705.684 227.686 707.315 247.163 727.995 266.758C720.787 264.586 716.928 262.518 710.244 259.13C715.86 270.073 724.059 277.222 736.027 280.929C752.501 286.033 775.293 287.031 792.162 282.878C796.866 281.72 802.843 278.591 807.144 276.344C802.794 275.868 786.034 272.37 784.158 268.27C787.499 268.036 790.822 268.474 794.142 268.232C804.613 267.47 817.623 264.517 826.804 259.42C819.696 258.223 816.524 257.439 809.829 254.812C833.014 252.582 827.757 247.16 852.342 255.949C845.159 250.396 837.733 244.923 830.478 239.443C820.511 247.996 806.797 253.114 793.789 250.649C765.466 245.281 753.236 218.906 757.183 192.785C747.883 185.777 736.656 181.697 725.249 179.806C741.922 178.322 755.724 179.501 771.528 185.011C769.381 174.059 768.453 165.224 770.413 154.109C778.483 170.866 804.992 201.884 819.995 212.929C829.26 219.75 843.298 226.999 853.886 231.956C856.388 228.912 858.026 226.855 860.178 223.582C855.206 203.703 832.605 187.117 817.274 174.82C832.157 180.989 849.252 196.07 860.31 207.626C866.508 214.732 871.476 223.293 864.56 231.838C857.015 241.16 853.916 240.639 842.99 239.147C846.629 242.047 850.843 244.811 854.504 247.769C866.313 257.309 881.154 266.216 886.189 281.377C887.765 286.121 888.226 290.423 888.887 295.276C878.706 281.896 854.645 267.104 836.209 273.244C834.585 273.785 833.431 275.214 832.908 276.86C833.416 284.333 846.418 287.807 851.838 292.104C856.759 296.004 858.904 298.517 862.536 303.538C852.151 299.762 813.815 285.465 812.659 308.163C812.413 312.982 823.656 315.747 827.537 316.742C838.146 319.462 848.008 322.038 857.406 328.065C845.098 325.082 824.406 321.398 819.187 337.237C818.87 338.201 819.769 340.513 820.488 341.216C827.462 347.365 837.62 349.623 847.525 350.489C866.312 352.132 899.689 352.782 916.241 343.895C923.001 340.266 928.178 319.563 928.708 312.245C926.589 308.84 921.498 301.474 918.812 298.658C919.247 301.952 919.387 304.609 919.545 307.933C906.55 300.935 893.006 279.486 889.897 265.077C897.942 273.838 907.218 276.329 918.661 276.085C925.906 275.93 935.755 277.406 942.714 279.439C922.999 259.922 904.898 241.612 882.063 225.705C879.851 229.016 879.193 229.795 876.3 232.431C879.632 221.107 879.426 211.558 870.428 202.69C858.705 191.137 845.294 181.646 832.133 171.889C787.436 138.752 736.511 114.976 681.452 105.685C663.362 102.575 643.744 99.4666 625.14 99.4139C634.457 103.028 645.282 108.532 653.37 114.374C610.902 102.817 575.955 76.8363 534.404 63.5776C524.233 60.332 517.446 64.8189 512.989 73.9652C498.78 103.126 502.196 163.89 534.684 180.026C541.328 177.749 559.358 168.093 566.518 164.477C554.894 162.576 546.264 160.163 538.116 150.916C528.844 140.393 525.937 124.76 526.806 111.115C529.587 115.34 530.964 118.89 534.615 122.783C534.001 120.083 532.452 116.035 531.68 112.923C529.391 103.687 529.976 96.7447 530.662 87.4754C550.688 115.334 581.959 126.183 614.759 130.718C598.797 138.817 586.093 140.161 568.801 140.086C582.817 148.973 598.565 154.483 615.171 151.713C603.076 158.369 591.319 165.602 578.866 171.613C537.425 191.616 497.413 210.023 477.871 255.565C496.044 249.128 504.458 248.964 522.777 246.325C501.171 266.969 487.058 293.566 486.304 323.838C495.753 309.489 510.148 295.007 524.679 286.011C518.848 292.981 517.301 297.008 514.217 305.649C506.149 328.25 508.546 350.432 513.434 373.336C521.341 360.745 531.392 349.903 544.178 342.335C575.736 323.658 614.667 320.281 649.751 328.509C640.663 335.739 638.785 337.078 631.515 345.924C646.918 347.384 678.559 352.319 689.304 363.013C674.536 359.385 655.269 359.761 640.001 360.203C620.89 360.756 604.702 365.577 588.869 376.286C596.851 359.205 602.055 352.924 614.737 339.906C593.109 338.131 567.461 344.866 549.605 357.219C529.457 371.156 518.155 388.811 513.635 412.658C510.705 408.102 508.976 403.105 506.878 398.213C498.413 378.478 495.94 359.685 493.949 338.56C486.156 348.459 478.124 361.856 476.687 374.606C467.739 341.348 470.27 300.753 484.692 269.448C472.072 273.51 461.738 276.188 452.408 285.851C453.482 243.178 485.116 212.068 515.749 187.037C495.315 162.747 490.302 137.698 489.16 106.786C435.134 123.176 377.667 158.374 347.203 207.301C341.199 216.943 338.059 226.472 334.033 236.868C336.144 219.736 343.192 200.737 346.343 183.361C340.455 190.285 334.359 196.775 328.322 203.687C306.69 228.457 286.562 255.195 274.698 286.149C271.071 295.613 267.711 306.493 267.224 316.528C263.324 303.814 264.008 285.408 264.039 271.736C253.292 291.769 242.409 311.062 232.557 331.599C227.581 341.97 224.311 351.529 219.777 361.771C226.577 316.8 244.401 271.497 268.183 233.077C272.051 226.83 279.571 213.795 283.886 208.492C280.602 220.329 277.56 235.53 276.785 247.75C280.424 240.276 287.871 230.216 292.865 223.347C303.727 208.407 316.08 193.262 328.667 179.738C342.026 165.384 357.611 151.227 370.041 136.194C367.784 145.235 365.388 154.367 362.479 163.22C387.047 138.93 419.904 118.578 451.316 104.526C463.621 99.0209 478.012 93.8398 490.738 88.7834C496.02 70.4521 502.204 49.5139 523.984 46.6591Z"/><path fill="white" d="M390.581 633.75C442.502 630.432 516.096 659.818 538.006 710.476C545.705 728.276 540.222 748.017 526.058 760.932C499.607 785.049 462.273 775.651 429.893 778.72C409.939 780.69 390.077 786.536 371.376 793.246C359.033 797.364 345.772 803.08 333.844 808.418C312.241 818.084 286.161 829.87 264.774 812.804C255.319 805.26 248.31 792.718 247.51 780.233C245.469 748.392 267.388 716.887 286.462 693.021C315.249 658.645 344.77 637.697 390.581 633.75Z"/><defs><linearGradient id="gradient_0" gradientUnits="userSpaceOnUse" x1="265.86246" y1="795.17395" x2="501.71066" y2="668.34167"><stop offset="0" stop-color="black"/><stop offset="1" stop-color="#2B282C"/></linearGradient></defs><path fill="url(#gradient_0)" d="M392.746 645.703C395.155 645.355 400.588 645.398 403.131 645.367C426.228 645.086 450.292 652.419 471.039 662.519C492.053 672.749 519.65 692.953 527.609 715.71C530.493 723.959 530.532 735.7 526.167 743.536C508.473 775.301 460.808 764.522 430.344 768.032C405.232 770.925 391.651 774.107 368.137 781.86C356.189 785.804 346.36 789.603 334.883 794.776C322.499 800.359 308.12 807.904 294.658 809.777C272.185 812.903 255.963 789.887 259.844 769.126C264.63 741.9 281.043 717.456 298.548 696.654C316.476 675.948 339.367 656.946 366.176 649.846C375.237 647.429 383.581 646.427 392.746 645.703Z"/><path fill="white" d="M390.024 650.235C410.746 650.533 424.563 654.442 443.564 663.33C469.335 675.796 497.155 694.641 508.288 721.981C514.783 737.93 506.659 758.305 489.156 761.942C473.698 765.154 455.523 762.949 439.373 763.504C410.253 764.504 385.508 772.089 358.347 781.515C349.988 784.483 342.43 787.916 334.311 791.346C315.835 799.149 290.849 816.558 272.511 799.462C263.112 790.7 260.335 776.541 263.745 764.386C271.225 738 287.556 713.387 306.147 693.583C329.655 668.541 354.728 651.31 390.024 650.235Z"/><path fill="white" d="M425.724 390.343C437.719 390.903 456.032 402.142 464.796 409.952C492.52 434.656 509.54 464.316 512.226 501.908C513.93 525.765 507.392 552.182 491.546 570.29C476.708 587.247 461.997 593.321 440.098 594.953C436.575 595.044 432.381 594.973 428.932 594.327C372.118 583.688 347.962 519.909 356.423 468.111C361.283 438.36 376.125 413.156 400.125 395.795C411.075 400.111 418.434 400.632 425.724 390.343Z"/><defs><linearGradient id="gradient_1" gradientUnits="userSpaceOnUse" x1="365.98746" y1="488.44968" x2="501.52267" y2="500.43555"><stop offset="0" stop-color="black"/><stop offset="1" stop-color="#2C292C"/></linearGradient></defs><path fill="url(#gradient_1)" d="M416.768 405.618C426.77 404.588 437.128 406.379 445.881 411.449C498.324 441.826 524.291 524.117 476.336 569.733C469.332 576.396 460.55 579.852 451.378 582.243C447.679 582.955 443.265 583.662 439.641 583.527C369.959 580.931 347.25 478.83 382.806 429.587C391.833 417.085 402.215 408.258 416.768 405.618Z"/><path fill="white" d="M419.651 408.655C465.051 405.393 486.593 469.876 487.182 505.946C487.697 537.41 475.186 578.988 437.597 580.027C426.197 579.559 416.364 576.273 407.04 569.421C365.851 539.154 357.881 471.233 386.745 430.212C394.842 418.704 405.518 410.789 419.651 408.655Z"/><path fill="white" d="M232.659 432.685C281.672 431.169 328.976 477.152 341.596 522.338C353.804 566.052 339.992 610.705 293.24 623.833C220.526 638.204 165.135 541.875 186.109 479.373C190.611 465.956 194.964 454.757 204.932 444.438C224.851 448.254 221.761 433.732 232.659 432.685Z"/><defs><linearGradient id="gradient_2" gradientUnits="userSpaceOnUse" x1="198.93367" y1="543.3291" x2="327.05673" y2="513.14166"><stop offset="0" stop-color="black"/><stop offset="1" stop-color="#312D31"/></linearGradient></defs><path fill="url(#gradient_2)" d="M315.323 492.924C337.473 522.61 345.691 577.834 312.059 603.085C301.066 611.339 283.879 615.666 270.265 613.274C218.963 604.261 186.697 544.157 194.577 495.184C198.98 467.688 215.324 439.707 246.8 445.772C274.533 451.116 297.101 467.164 313.363 489.933C313.764 490.531 315.072 492.391 315.323 492.924Z"/><path fill="#272529" d="M315.323 492.924C313.907 493.543 314.363 493.044 313.61 494.159C313.925 495.83 314.181 496.685 314.699 498.313L311.35 498.222C310.62 498.981 310.636 499.187 310.473 500.217L310.324 501.214L309.476 500.986C308.282 499.444 307.164 498.456 307.124 496.587C308.067 494.171 308.618 493.133 308.431 490.479L309.309 490.077C310.411 490.959 310.36 491.062 311.709 491.345L313.363 489.933C313.764 490.531 315.072 492.391 315.323 492.924Z"/><path fill="white" d="M234.273 448.637C303.906 445.632 361.24 592.029 284.263 610.041C269.001 612.507 251.999 605.399 239.688 596.647C217.106 580.564 202.833 554.261 197.969 527.368C193.068 500.277 201.177 453.767 234.273 448.637Z"/><path fill="white" d="M578.767 507.035C586.046 506.22 587.32 516.978 602.501 507.625C604.605 508.277 607.351 509.357 609.202 510.529C665.425 546.128 677.452 638.567 623.11 681.731C613.656 689.24 605.971 692.532 594.472 695.613C553.472 703.309 525.458 674.186 514.564 636.949C500.602 589.222 528.025 520.754 578.767 507.035Z"/><defs><linearGradient id="gradient_3" gradientUnits="userSpaceOnUse" x1="524.24432" y1="592.69983" x2="646.00201" y2="611.0141"><stop offset="0" stop-color="black"/><stop offset="1" stop-color="#282629"/></linearGradient></defs><path fill="url(#gradient_3)" d="M581.348 519.657C619.265 515.352 640.781 558.515 645.837 590.067C652.122 629.288 631.998 678.077 588.694 684.223C576.123 685.566 564.006 683.502 553.379 675.943C504.964 641.506 516.36 549.425 567.88 523.525C571.925 521.492 576.849 520.385 581.348 519.657Z"/><path fill="white" d="M583.636 522.67C622.029 518.18 637.183 570.939 634.421 600.496C631.792 628.63 622.851 661.296 597.056 676.988C589.983 681.291 584.898 681.439 576.997 680.955C502.115 669.622 514.924 532.445 583.636 522.67Z"/><path fill="white" d="M146.696 595.188C165.03 591.966 191.957 601.613 206.858 612.154C230.011 628.415 245.827 650.78 251.272 678.639C257.68 711.428 242.007 740.454 207.62 746.342C197.219 747.839 184.46 748.137 174.339 744.846C121.544 727.676 90.5451 671.972 106.252 618.346C117.69 616.445 124.115 613.493 124.898 600.975C132.997 597.543 137.991 596.265 146.696 595.188Z"/><defs><linearGradient id="gradient_4" gradientUnits="userSpaceOnUse" x1="124.74288" y1="691.29327" x2="229.24289" y2="649.20563"><stop offset="0" stop-color="black"/><stop offset="1" stop-color="#302D31"/></linearGradient></defs><path fill="url(#gradient_4)" d="M148.757 606.691C161.308 605.17 182.936 610.442 193.945 617.162C215.005 629.986 233.416 649.273 239.672 673.775C246.956 702.304 237.273 727.623 207.378 735.262C161.879 744.09 118.263 701.365 113.864 657.769C111.308 632.433 121.111 609.454 148.757 606.691Z"/><path fill="white" d="M149.261 610.204C163.154 609.387 180.137 619.067 190.75 627.517C209.272 642.45 226.598 666.679 228.948 690.987C231.253 714.826 222.461 731.394 197.354 733.326C162.224 733.212 132.755 707.521 121.037 675.309C111.605 649.381 115.372 612.828 149.261 610.204Z"/><path fill="#69C4EA" d="M643.08 686.342C651.484 677.025 655.635 671.21 662.301 660.756C671.973 675.711 681.956 693.683 691.066 709.2L734.954 782.847C741.464 793.642 748.388 804.163 755.052 814.857L791.218 873.11C795.337 879.697 799.803 885.818 803.844 892.507C800.524 889.253 797.422 885.661 794.088 882.381C778.61 867.153 761.834 854.407 744.794 840.974C751.576 850.142 769.339 870.179 777.409 878.676L775.875 879.571C770.112 873.962 762.073 867.503 755.854 862.166L723.218 833.757L688.483 802.733C666.741 783.608 644.824 764.667 623.945 744.566C613.756 734.756 603.358 723.764 593.439 713.602C601.876 711.834 606.635 711.145 614.207 707.152C621.411 713.501 629.377 721.953 636.873 728.784L696.931 782.629C706.681 791.479 722.403 807.138 732.342 814.159C726.256 806.755 720.622 799.606 715.166 791.708C691.034 756.772 666.038 722.076 643.08 686.342Z"/><path fill="white" d="M362.089 570.382C362.736 571.061 363.941 572.787 364.551 573.593C392.004 609.823 442.296 625.924 482.608 600.776C486.816 598.152 490.611 595.132 494.546 591.983C492.32 611.562 494.371 627.148 499.028 646.093C460.884 623.806 420.412 611.262 375.795 617.166C364.683 618.702 357.463 621.017 347.185 624.634C312.922 636.69 292.513 656.66 269.943 683.513C266.924 665.355 263.427 656.082 255.198 640.12C309.061 653.369 350.485 623.356 362.089 570.382Z"/><path fill="#69C4EA" d="M551.068 761.309C556.174 765.967 562.896 775.792 567.341 781.656C591.72 813.82 618.374 844.054 646 873.449C652.63 880.503 659.589 887.205 666.145 894.324L664.842 895.665C651.775 887.701 638.308 876.866 624.637 870.166C637.797 881.918 656.409 896.471 668.37 908.343C651.977 899.18 635.515 887.39 619.96 876.829C581.335 850.605 546.238 823.839 511.8 792.214C515.187 790.814 518.029 789.221 521.248 787.484C533.211 795.309 544.182 804.538 555.679 813.007C571.647 824.769 588.119 835.848 603.9 847.864C608.801 851.597 613.619 855.456 618.903 858.644C602.399 842.151 585.41 825.081 569.941 807.658C560.251 796.744 551.149 784.421 542.351 772.747C545.418 769.106 548.24 765.148 551.068 761.309Z"/><path fill="#69C4EA" d="M413.76 799.651C446.862 834.171 478.743 869.317 514.985 900.76C517.104 902.598 519.189 904.387 521.09 906.453C513.942 901.852 507.197 897.329 499.935 892.851C488.532 885.818 473.153 878.74 462.304 871.581C466.751 877.438 487.971 892.054 494.737 897.117C484.93 893.166 475.799 887.638 466.469 882.63C440.441 868.659 414.998 853.4 390.026 837.623C383.422 833.451 376.706 829.49 370.676 824.527C372.493 823.581 373.932 822.809 375.828 822.048C390.393 828.087 404.745 835.771 418.956 842.6C421.649 843.894 434.079 850.519 436.041 851.164C438.324 851.44 440.542 852.081 442.589 851.443C442.639 849.927 442.108 849.814 440.975 848.248L441.362 847.686C427.031 833.006 412.63 818.609 398.603 803.551C403.63 802.228 408.705 800.843 413.76 799.651Z"/><path fill="#111112" d="M441.362 847.686C446.797 852.698 452.714 858.4 458.486 862.893C451.065 859.511 443.269 855.083 436.041 851.164C438.324 851.44 440.542 852.081 442.589 851.443C442.639 849.927 442.108 849.814 440.975 848.248L441.362 847.686Z"/><path fill="white" d="M766.328 345.996C777.366 358.187 785.083 376.462 783.954 392.978C783.58 398.445 783.169 403.334 782.562 408.768C787.694 414.197 811.555 429.354 811.271 435.017C811.153 437.365 808.75 439.689 806.921 440.894C804.405 442.551 801.458 442.026 798.693 441.329C794.824 440.353 791.052 438.566 787.361 437.059C777.182 432.901 773.741 431.664 767.256 422.253C765.547 419.774 763.595 417.367 762.06 414.779C759.535 410.522 760.266 401.415 759.816 396.439C759.43 392.17 758.756 387.754 757.227 383.729C754.005 375.246 748.801 370.231 751.969 360.302C752.034 360.097 752.107 359.894 752.176 359.691L753.015 359.416L754.202 360.076L754.224 359.615C753.144 357.983 753.012 355.048 754.553 353.693C756.467 353.776 757.402 354.755 758.99 355.903C757.852 354.67 756.609 353.259 755.402 352.129C759.114 349.942 762.519 348.005 766.328 345.996Z"/><path fill="#111112" d="M754.202 360.076L754.224 359.615C753.144 357.983 753.012 355.048 754.553 353.693C756.467 353.776 757.402 354.755 758.99 355.903C768.369 363.602 774.766 378.417 775.72 390.326C776.056 394.522 776.418 408.819 774.693 412.161C773.91 411.521 773.796 410.928 773.656 409.867C771.005 389.797 768.843 375.349 754.202 360.076Z"/><path fill="white" d="M191.144 359.386C192.03 360.195 199.634 376.938 200.33 378.626C206.674 394.009 217.527 406.765 224.191 421.737C226.808 427.617 224.719 432.46 221.065 437.23C218.285 439.785 214.654 442.074 210.744 441.962C207.639 441.873 204.885 440.334 202.793 438.094C192.208 426.759 190.421 375.391 191.144 359.386Z"/><path fill="white" d="M391.025 310.403C402.086 322.818 419.996 358.184 423.553 374.646C424.994 381.315 424.622 385.774 420.847 391.451C413.017 398.05 401.593 396.724 398.964 385.628C398.222 381.335 398.409 376.561 398.524 372.212C399.093 350.657 396.633 331.262 391.025 310.403Z"/><path fill="white" d="M580.515 424.873C580.626 424.96 580.737 425.046 580.848 425.133C592.347 442.615 600.669 462.654 604.492 483.275C606.068 491.781 606.237 498.243 599.861 504.854C585.616 513.752 576.842 499.644 579.999 486.207C581.718 478.893 582.281 468.935 582.803 461.396C583.639 449.318 580.918 436.785 580.515 424.873Z"/><path fill="white" d="M71.4421 543.374C73.3407 544.839 78.5563 552.85 80.3936 555.275C87.8751 565.15 95.6175 574.174 104.66 582.658C109.5 587.198 116.645 592.439 120.327 597.832C121.142 603.663 121.56 606.426 117.462 610.863C101.085 622.111 92.9584 604.512 87.3369 592.333C80.0412 576.526 75.4978 560.231 71.4421 543.374Z"/><path fill="white" d="M840.762 357.458C848.609 357.721 860.266 358.606 868.089 359.329C862.75 372.816 852.272 385.188 841.492 394.658C836.228 399.131 831.553 402.216 825.176 404.788C833.526 389.087 838.967 375.286 840.762 357.458Z"/><path fill="white" d="M831.524 435.897L832.125 436.72C832.182 446.016 822.533 465.1 816.507 472.477C809.525 481.025 802.986 482.77 794.508 475.337C791.35 472.18 790.038 470.573 788.314 466.386C790.08 465.153 792.221 463.941 794.135 462.941C808.057 455.668 819.58 446.009 831.524 435.897Z"/><path fill="white" d="M638.74 64.9607C639.338 64.9158 639.881 64.854 640.487 64.9075C644.87 65.2951 658.565 86.0125 662.312 90.428C656.538 89.1222 652.032 88.4437 646.123 88.0483C637.803 87.2466 628.781 87.7589 620.375 88.017C622.953 80.1316 631.118 68.9836 638.74 64.9607Z"/><path fill="white" d="M770.055 194.332C770.825 194.417 774.759 194.886 774.732 196.218C774.587 203.532 773.947 209.568 777.209 216.231C783.768 229.632 798.333 235.222 812.563 233.362C815.436 232.987 821.468 230.547 822.683 233.371C821.76 235.074 821.784 234.632 819.663 235.702C811.961 239.318 805.343 240.799 796.769 239.673C788.362 238.568 780.523 233.766 775.551 226.896C767.95 216.393 768.083 206.585 770.055 194.332Z"/><path fill="white" d="M885.497 369.886C896.799 368.914 891.09 383.393 888.831 388.673C895.254 380.96 892.82 378.513 902.842 373.364C897.288 384.006 893.808 390.14 885.245 398.443C879.116 403.899 873.654 408.123 867.132 413.071C874.393 401.366 882.542 385.701 884.994 371.83C885.197 370.684 884.47 371.959 885.497 369.886Z"/><path fill="white" d="M940.195 324.268C940.438 324.186 941.428 324.085 941.725 324.047L942.156 324.707C941.914 347.622 932.375 353.408 917.45 368.458C918.061 366.804 918.857 365.403 919.675 363.845L922.605 357.945L914.533 360.344C925.908 348.653 929.692 341.175 932.938 324.683C935.334 324.609 937.797 324.42 940.195 324.268Z"/><path fill="#69C4EA" d="M779.855 199.777C789.091 208.514 799.131 216.633 809.464 224.051C811.423 225.458 813.459 226.588 815.229 228.243L814.831 228.897C796.328 231.97 774.883 221.219 779.855 199.777Z"/><path fill="white" d="M854.282 452.891L854.777 453.437C853.689 464.01 839.229 477.477 830.724 483.146L825.802 479.534C823.662 477.89 822.687 477.447 822.08 474.95C822.644 473.723 823.431 473.165 824.64 472.521C835.556 466.702 844.566 460.564 854.282 452.891Z"/><path fill="white" d="M905.69 357.45L906.082 357.603L906.1 358.176C904.393 359.916 903.048 360.984 901.196 362.524C899.144 364.232 897.562 364.328 895.83 366.149L893.728 363.868C894.465 362.718 903.962 358.202 905.69 357.45Z"/><path fill="#5888A2" d="M777.409 878.676C779.693 881.294 782.33 884.169 784.305 886.98C781.274 885.044 778.478 882.104 775.875 879.571L777.409 878.676Z"/><path fill="#69C4EA" d="M666.145 894.324L672.533 901.081C670.164 899.393 667.245 897.192 664.842 895.665L666.145 894.324Z"/><path fill="#272529" d="M640.952 161.604C641.133 162.288 627.318 175.764 625.582 177.767C601.257 205.839 583.668 239.973 580.832 277.424C593.223 272.038 599.723 271.128 612.94 268.57C590.996 283.09 572.825 298.826 554.828 317.981C548.029 325.128 542.031 331.637 535.523 339.085C534.044 280.991 556.706 228.371 600.825 190.359C613.795 179.184 626.576 170.797 640.952 161.604Z"/><path fill="#272529" d="M690.196 162.008L690.462 162.038C690.567 162.695 685.135 167.238 684.156 168.16C672.675 178.973 665.442 190.571 659.616 205.125C650.801 227.145 645.529 249.94 654.963 272.549C649.126 267.513 647.658 265.274 643.604 258.689C644.91 280.306 652.64 300.458 670.759 313.373L671.596 314.082C670.644 314.617 668.823 313.915 667.684 313.646C655.356 310.735 642.661 299.282 636.649 288.196C627.241 270.85 626.831 254.312 632.563 235.621C635.177 227.097 638.402 219.219 642.834 211.417C652.438 194.513 673.15 171.181 690.196 162.008Z"/><path fill="#272529" d="M450.91 158.572C450.728 159.707 444.165 167.566 442.89 169.397C417.971 205.183 408.297 244.405 412.692 287.119C406.954 281.152 402.824 274.166 399.509 266.642C386.865 239.074 395.465 213.548 408.451 188.405C407.434 194.25 406.73 199.858 405.986 205.739C417.168 185.805 431.442 170.632 450.91 158.572Z"/><path fill="#272529" d="M359.262 264.463L359.67 264.822C336.784 291.623 338.495 357.308 347.18 389.701C340.76 384.044 336.185 377.889 331.546 370.789C318.984 350.02 317.391 332.912 322.301 309.278C323.625 315.195 324.99 319.715 326.83 325.417C327.288 302.997 340.694 277.158 359.262 264.463Z"/></svg>